<mxfile host="app.diagrams.net" modified="2024-04-16T07:26:23.539Z" agent="Mozilla/5.0 (Windows NT 10.0; Win64; x64) AppleWebKit/537.36 (KHTML, like Gecko) Chrome/123.0.0.0 Safari/537.36" etag="KBBW-qbaRFmHQyCnjAD6" version="24.2.5" type="github" pages="2">
  <diagram name="Sequence" id="2YBvvXClWsGukQMizWep">
    <mxGraphModel dx="1050" dy="522" grid="1" gridSize="10" guides="1" tooltips="1" connect="1" arrows="1" fold="1" page="1" pageScale="1" pageWidth="850" pageHeight="1100" math="0" shadow="0">
      <root>
        <mxCell id="0" />
        <mxCell id="1" parent="0" />
        <mxCell id="aM9ryv3xv72pqoxQDRHE-1" value="Customer" style="shape=umlLifeline;perimeter=lifelinePerimeter;whiteSpace=wrap;html=1;container=0;dropTarget=0;collapsible=0;recursiveResize=0;outlineConnect=0;portConstraint=eastwest;newEdgeStyle={&quot;edgeStyle&quot;:&quot;elbowEdgeStyle&quot;,&quot;elbow&quot;:&quot;vertical&quot;,&quot;curved&quot;:0,&quot;rounded&quot;:0};" parent="1" vertex="1">
          <mxGeometry x="120" y="40" width="100" height="640" as="geometry" />
        </mxCell>
        <mxCell id="aM9ryv3xv72pqoxQDRHE-2" value="" style="html=1;points=[];perimeter=orthogonalPerimeter;outlineConnect=0;targetShapes=umlLifeline;portConstraint=eastwest;newEdgeStyle={&quot;edgeStyle&quot;:&quot;elbowEdgeStyle&quot;,&quot;elbow&quot;:&quot;vertical&quot;,&quot;curved&quot;:0,&quot;rounded&quot;:0};" parent="aM9ryv3xv72pqoxQDRHE-1" vertex="1">
          <mxGeometry x="45" y="70" width="10" height="190" as="geometry" />
        </mxCell>
        <mxCell id="aM9ryv3xv72pqoxQDRHE-5" value="OrderUI" style="shape=umlLifeline;perimeter=lifelinePerimeter;whiteSpace=wrap;html=1;container=0;dropTarget=0;collapsible=0;recursiveResize=0;outlineConnect=0;portConstraint=eastwest;newEdgeStyle={&quot;edgeStyle&quot;:&quot;elbowEdgeStyle&quot;,&quot;elbow&quot;:&quot;vertical&quot;,&quot;curved&quot;:0,&quot;rounded&quot;:0};" parent="1" vertex="1">
          <mxGeometry x="300" y="40" width="100" height="640" as="geometry" />
        </mxCell>
        <mxCell id="aM9ryv3xv72pqoxQDRHE-6" value="" style="html=1;points=[];perimeter=orthogonalPerimeter;outlineConnect=0;targetShapes=umlLifeline;portConstraint=eastwest;newEdgeStyle={&quot;edgeStyle&quot;:&quot;elbowEdgeStyle&quot;,&quot;elbow&quot;:&quot;vertical&quot;,&quot;curved&quot;:0,&quot;rounded&quot;:0};" parent="aM9ryv3xv72pqoxQDRHE-5" vertex="1">
          <mxGeometry x="45" y="80" width="10" height="170" as="geometry" />
        </mxCell>
        <mxCell id="-4yz82r7T2-vzo8MOfDi-10" value="" style="html=1;points=[];perimeter=orthogonalPerimeter;outlineConnect=0;targetShapes=umlLifeline;portConstraint=eastwest;newEdgeStyle={&quot;edgeStyle&quot;:&quot;elbowEdgeStyle&quot;,&quot;elbow&quot;:&quot;vertical&quot;,&quot;curved&quot;:0,&quot;rounded&quot;:0};" vertex="1" parent="aM9ryv3xv72pqoxQDRHE-5">
          <mxGeometry x="39" y="90" width="10" height="80" as="geometry" />
        </mxCell>
        <mxCell id="-4yz82r7T2-vzo8MOfDi-13" value="" style="html=1;points=[];perimeter=orthogonalPerimeter;outlineConnect=0;targetShapes=umlLifeline;portConstraint=eastwest;newEdgeStyle={&quot;edgeStyle&quot;:&quot;elbowEdgeStyle&quot;,&quot;elbow&quot;:&quot;vertical&quot;,&quot;curved&quot;:0,&quot;rounded&quot;:0};" vertex="1" parent="aM9ryv3xv72pqoxQDRHE-5">
          <mxGeometry x="39" y="186" width="10" height="50" as="geometry" />
        </mxCell>
        <mxCell id="aM9ryv3xv72pqoxQDRHE-7" value="구매버튼 클" style="html=1;verticalAlign=bottom;endArrow=block;edgeStyle=elbowEdgeStyle;elbow=vertical;curved=0;rounded=0;" parent="1" source="aM9ryv3xv72pqoxQDRHE-2" target="aM9ryv3xv72pqoxQDRHE-6" edge="1">
          <mxGeometry relative="1" as="geometry">
            <mxPoint x="275" y="130" as="sourcePoint" />
            <Array as="points">
              <mxPoint x="260" y="120" />
            </Array>
          </mxGeometry>
        </mxCell>
        <mxCell id="-4yz82r7T2-vzo8MOfDi-1" value="Order&lt;span style=&quot;color: rgba(0, 0, 0, 0); font-family: monospace; font-size: 0px; text-align: start; text-wrap: nowrap;&quot;&gt;%3CmxGraphModel%3E%3Croot%3E%3CmxCell%20id%3D%220%22%2F%3E%3CmxCell%20id%3D%221%22%20parent%3D%220%22%2F%3E%3CmxCell%20id%3D%222%22%20value%3D%22OrderUI%22%20style%3D%22shape%3DumlLifeline%3Bperimeter%3DlifelinePerimeter%3BwhiteSpace%3Dwrap%3Bhtml%3D1%3Bcontainer%3D0%3BdropTarget%3D0%3Bcollapsible%3D0%3BrecursiveResize%3D0%3BoutlineConnect%3D0%3BportConstraint%3Deastwest%3BnewEdgeStyle%3D%7B%26quot%3BedgeStyle%26quot%3B%3A%26quot%3BelbowEdgeStyle%26quot%3B%2C%26quot%3Belbow%26quot%3B%3A%26quot%3Bvertical%26quot%3B%2C%26quot%3Bcurved%26quot%3B%3A0%2C%26quot%3Brounded%26quot%3B%3A0%7D%3B%22%20vertex%3D%221%22%20parent%3D%221%22%3E%3CmxGeometry%20x%3D%22220%22%20y%3D%2240%22%20width%3D%22100%22%20height%3D%22300%22%20as%3D%22geometry%22%2F%3E%3C%2FmxCell%3E%3CmxCell%20id%3D%223%22%20value%3D%22%22%20style%3D%22html%3D1%3Bpoints%3D%5B%5D%3Bperimeter%3DorthogonalPerimeter%3BoutlineConnect%3D0%3BtargetShapes%3DumlLifeline%3BportConstraint%3Deastwest%3BnewEdgeStyle%3D%7B%26quot%3BedgeStyle%26quot%3B%3A%26quot%3BelbowEdgeStyle%26quot%3B%2C%26quot%3Belbow%26quot%3B%3A%26quot%3Bvertical%26quot%3B%2C%26quot%3Bcurved%26quot%3B%3A0%2C%26quot%3Brounded%26quot%3B%3A0%7D%3B%22%20vertex%3D%221%22%20parent%3D%222%22%3E%3CmxGeometry%20x%3D%2245%22%20y%3D%2280%22%20width%3D%2210%22%20height%3D%22170%22%20as%3D%22geometry%22%2F%3E%3C%2FmxCell%3E%3C%2Froot%3E%3C%2FmxGraphModel%3E&lt;/span&gt;" style="shape=umlLifeline;perimeter=lifelinePerimeter;whiteSpace=wrap;html=1;container=0;dropTarget=0;collapsible=0;recursiveResize=0;outlineConnect=0;portConstraint=eastwest;newEdgeStyle={&quot;edgeStyle&quot;:&quot;elbowEdgeStyle&quot;,&quot;elbow&quot;:&quot;vertical&quot;,&quot;curved&quot;:0,&quot;rounded&quot;:0};" vertex="1" parent="1">
          <mxGeometry x="455" y="40" width="100" height="640" as="geometry" />
        </mxCell>
        <mxCell id="-4yz82r7T2-vzo8MOfDi-2" value="" style="html=1;points=[];perimeter=orthogonalPerimeter;outlineConnect=0;targetShapes=umlLifeline;portConstraint=eastwest;newEdgeStyle={&quot;edgeStyle&quot;:&quot;elbowEdgeStyle&quot;,&quot;elbow&quot;:&quot;vertical&quot;,&quot;curved&quot;:0,&quot;rounded&quot;:0};" vertex="1" parent="-4yz82r7T2-vzo8MOfDi-1">
          <mxGeometry x="45" y="186" width="10" height="80" as="geometry" />
        </mxCell>
        <mxCell id="-4yz82r7T2-vzo8MOfDi-3" value="Delivery" style="shape=umlLifeline;perimeter=lifelinePerimeter;whiteSpace=wrap;html=1;container=0;dropTarget=0;collapsible=0;recursiveResize=0;outlineConnect=0;portConstraint=eastwest;newEdgeStyle={&quot;edgeStyle&quot;:&quot;elbowEdgeStyle&quot;,&quot;elbow&quot;:&quot;vertical&quot;,&quot;curved&quot;:0,&quot;rounded&quot;:0};" vertex="1" parent="1">
          <mxGeometry x="630" y="40" width="100" height="640" as="geometry" />
        </mxCell>
        <mxCell id="-4yz82r7T2-vzo8MOfDi-4" value="" style="html=1;points=[];perimeter=orthogonalPerimeter;outlineConnect=0;targetShapes=umlLifeline;portConstraint=eastwest;newEdgeStyle={&quot;edgeStyle&quot;:&quot;elbowEdgeStyle&quot;,&quot;elbow&quot;:&quot;vertical&quot;,&quot;curved&quot;:0,&quot;rounded&quot;:0};" vertex="1" parent="-4yz82r7T2-vzo8MOfDi-3">
          <mxGeometry x="45" y="236" width="10" height="80" as="geometry" />
        </mxCell>
        <mxCell id="-4yz82r7T2-vzo8MOfDi-5" value="alt" style="shape=umlFrame;whiteSpace=wrap;html=1;pointerEvents=0;recursiveResize=0;container=1;collapsible=0;width=60;height=30;" vertex="1" parent="1">
          <mxGeometry x="140" y="380" width="350" height="230" as="geometry" />
        </mxCell>
        <mxCell id="-4yz82r7T2-vzo8MOfDi-6" value="" style="endArrow=none;html=1;rounded=0;entryX=0.997;entryY=0.523;entryDx=0;entryDy=0;entryPerimeter=0;" edge="1" parent="-4yz82r7T2-vzo8MOfDi-5" target="-4yz82r7T2-vzo8MOfDi-5">
          <mxGeometry width="50" height="50" relative="1" as="geometry">
            <mxPoint y="120" as="sourcePoint" />
            <mxPoint x="220" y="120" as="targetPoint" />
            <Array as="points">
              <mxPoint y="120" />
            </Array>
          </mxGeometry>
        </mxCell>
        <mxCell id="-4yz82r7T2-vzo8MOfDi-8" value="[만족 == True]" style="text;html=1;align=center;verticalAlign=middle;whiteSpace=wrap;rounded=0;" vertex="1" parent="-4yz82r7T2-vzo8MOfDi-5">
          <mxGeometry y="30" width="100" height="30" as="geometry" />
        </mxCell>
        <mxCell id="-4yz82r7T2-vzo8MOfDi-9" value="[만족 == False]" style="text;html=1;align=center;verticalAlign=middle;whiteSpace=wrap;rounded=0;" vertex="1" parent="-4yz82r7T2-vzo8MOfDi-5">
          <mxGeometry y="120" width="100" height="30" as="geometry" />
        </mxCell>
        <mxCell id="-4yz82r7T2-vzo8MOfDi-19" value="" style="html=1;points=[];perimeter=orthogonalPerimeter;outlineConnect=0;targetShapes=umlLifeline;portConstraint=eastwest;newEdgeStyle={&quot;edgeStyle&quot;:&quot;elbowEdgeStyle&quot;,&quot;elbow&quot;:&quot;vertical&quot;,&quot;curved&quot;:0,&quot;rounded&quot;:0};" vertex="1" parent="-4yz82r7T2-vzo8MOfDi-5">
          <mxGeometry x="205" y="50" width="10" height="50" as="geometry" />
        </mxCell>
        <mxCell id="-4yz82r7T2-vzo8MOfDi-20" value="" style="html=1;points=[];perimeter=orthogonalPerimeter;outlineConnect=0;targetShapes=umlLifeline;portConstraint=eastwest;newEdgeStyle={&quot;edgeStyle&quot;:&quot;elbowEdgeStyle&quot;,&quot;elbow&quot;:&quot;vertical&quot;,&quot;curved&quot;:0,&quot;rounded&quot;:0};" vertex="1" parent="-4yz82r7T2-vzo8MOfDi-5">
          <mxGeometry x="205" y="150" width="10" height="50" as="geometry" />
        </mxCell>
        <mxCell id="-4yz82r7T2-vzo8MOfDi-12" value="주문정보화" style="edgeStyle=elbowEdgeStyle;rounded=0;orthogonalLoop=1;jettySize=auto;html=1;elbow=vertical;curved=0;" edge="1" parent="1" source="-4yz82r7T2-vzo8MOfDi-10" target="aM9ryv3xv72pqoxQDRHE-1">
          <mxGeometry relative="1" as="geometry" />
        </mxCell>
        <mxCell id="-4yz82r7T2-vzo8MOfDi-14" value="주문정보입력" style="edgeStyle=elbowEdgeStyle;rounded=0;orthogonalLoop=1;jettySize=auto;html=1;elbow=vertical;curved=0;" edge="1" parent="1" source="aM9ryv3xv72pqoxQDRHE-2" target="-4yz82r7T2-vzo8MOfDi-13">
          <mxGeometry relative="1" as="geometry" />
        </mxCell>
        <mxCell id="-4yz82r7T2-vzo8MOfDi-15" value="주문정보저장" style="edgeStyle=elbowEdgeStyle;rounded=0;orthogonalLoop=1;jettySize=auto;html=1;elbow=vertical;curved=0;" edge="1" parent="1" source="-4yz82r7T2-vzo8MOfDi-13" target="-4yz82r7T2-vzo8MOfDi-2">
          <mxGeometry relative="1" as="geometry" />
        </mxCell>
        <mxCell id="-4yz82r7T2-vzo8MOfDi-16" value="제품발송의뢰" style="edgeStyle=elbowEdgeStyle;rounded=0;orthogonalLoop=1;jettySize=auto;html=1;elbow=vertical;curved=0;" edge="1" parent="1" target="-4yz82r7T2-vzo8MOfDi-4">
          <mxGeometry relative="1" as="geometry">
            <mxPoint x="510" y="290" as="sourcePoint" />
            <mxPoint x="729.5" y="290" as="targetPoint" />
          </mxGeometry>
        </mxCell>
        <mxCell id="-4yz82r7T2-vzo8MOfDi-18" value="제품발송" style="edgeStyle=elbowEdgeStyle;rounded=0;orthogonalLoop=1;jettySize=auto;html=1;elbow=vertical;curved=0;" edge="1" parent="1" source="-4yz82r7T2-vzo8MOfDi-4" target="aM9ryv3xv72pqoxQDRHE-1">
          <mxGeometry relative="1" as="geometry" />
        </mxCell>
        <mxCell id="-4yz82r7T2-vzo8MOfDi-22" value="구매 확정" style="edgeStyle=elbowEdgeStyle;rounded=0;orthogonalLoop=1;jettySize=auto;html=1;elbow=vertical;curved=0;startArrow=classic;startFill=1;endArrow=none;endFill=0;" edge="1" parent="1" source="-4yz82r7T2-vzo8MOfDi-19" target="aM9ryv3xv72pqoxQDRHE-1">
          <mxGeometry relative="1" as="geometry" />
        </mxCell>
        <mxCell id="-4yz82r7T2-vzo8MOfDi-23" value="확정 보류" style="edgeStyle=elbowEdgeStyle;rounded=0;orthogonalLoop=1;jettySize=auto;html=1;elbow=vertical;curved=0;endArrow=none;endFill=0;startArrow=classic;startFill=1;" edge="1" parent="1" source="-4yz82r7T2-vzo8MOfDi-20" target="aM9ryv3xv72pqoxQDRHE-1">
          <mxGeometry relative="1" as="geometry" />
        </mxCell>
        <mxCell id="-4yz82r7T2-vzo8MOfDi-24" value="지급 요청" style="edgeStyle=elbowEdgeStyle;rounded=0;orthogonalLoop=1;jettySize=auto;html=1;elbow=vertical;curved=0;" edge="1" parent="1" source="-4yz82r7T2-vzo8MOfDi-19" target="-4yz82r7T2-vzo8MOfDi-1">
          <mxGeometry relative="1" as="geometry" />
        </mxCell>
        <mxCell id="-4yz82r7T2-vzo8MOfDi-25" value="지급 보류" style="edgeStyle=elbowEdgeStyle;rounded=0;orthogonalLoop=1;jettySize=auto;html=1;elbow=vertical;curved=0;" edge="1" parent="1" source="-4yz82r7T2-vzo8MOfDi-20" target="-4yz82r7T2-vzo8MOfDi-1">
          <mxGeometry relative="1" as="geometry" />
        </mxCell>
      </root>
    </mxGraphModel>
  </diagram>
  <diagram id="reSV_S6DBkSa-TGr4Afx" name="렌터카 예약 시스템">
    <mxGraphModel dx="1050" dy="522" grid="1" gridSize="10" guides="1" tooltips="1" connect="1" arrows="1" fold="1" page="1" pageScale="1" pageWidth="827" pageHeight="1169" math="0" shadow="0">
      <root>
        <mxCell id="0" />
        <mxCell id="1" parent="0" />
        <mxCell id="h1gKrtuAk7k6H_YOZJ_B-1" value="사용자" style="shape=umlActor;verticalLabelPosition=bottom;verticalAlign=top;html=1;outlineConnect=0;" vertex="1" parent="1">
          <mxGeometry x="40" y="270" width="30" height="60" as="geometry" />
        </mxCell>
        <mxCell id="ralqLuWNHDdKJg3bRzmN-16" style="rounded=0;orthogonalLoop=1;jettySize=auto;html=1;exitX=1;exitY=0.3333333333333333;exitDx=0;exitDy=0;exitPerimeter=0;entryX=0;entryY=0.5;entryDx=0;entryDy=0;endArrow=none;endFill=0;" edge="1" parent="1" source="h1gKrtuAk7k6H_YOZJ_B-2" target="ralqLuWNHDdKJg3bRzmN-4">
          <mxGeometry relative="1" as="geometry" />
        </mxCell>
        <mxCell id="ralqLuWNHDdKJg3bRzmN-25" style="rounded=0;orthogonalLoop=1;jettySize=auto;html=1;exitX=0.5;exitY=0.5;exitDx=0;exitDy=0;exitPerimeter=0;entryX=0;entryY=0.5;entryDx=0;entryDy=0;endArrow=none;endFill=0;" edge="1" parent="1" source="h1gKrtuAk7k6H_YOZJ_B-2" target="ralqLuWNHDdKJg3bRzmN-24">
          <mxGeometry relative="1" as="geometry" />
        </mxCell>
        <mxCell id="h1gKrtuAk7k6H_YOZJ_B-2" value="회원" style="shape=umlActor;verticalLabelPosition=bottom;verticalAlign=top;html=1;outlineConnect=0;" vertex="1" parent="1">
          <mxGeometry x="120" y="160" width="30" height="60" as="geometry" />
        </mxCell>
        <mxCell id="ralqLuWNHDdKJg3bRzmN-8" style="rounded=0;orthogonalLoop=1;jettySize=auto;html=1;exitX=0.5;exitY=0.5;exitDx=0;exitDy=0;exitPerimeter=0;dashed=1;" edge="1" parent="1" source="h1gKrtuAk7k6H_YOZJ_B-3" target="h1gKrtuAk7k6H_YOZJ_B-1">
          <mxGeometry relative="1" as="geometry" />
        </mxCell>
        <mxCell id="ralqLuWNHDdKJg3bRzmN-13" style="rounded=0;orthogonalLoop=1;jettySize=auto;html=1;exitX=0.5;exitY=0.5;exitDx=0;exitDy=0;exitPerimeter=0;endArrow=none;endFill=0;" edge="1" parent="1" source="h1gKrtuAk7k6H_YOZJ_B-3" target="ralqLuWNHDdKJg3bRzmN-3">
          <mxGeometry relative="1" as="geometry" />
        </mxCell>
        <mxCell id="h1gKrtuAk7k6H_YOZJ_B-3" value="렌터카 등록자" style="shape=umlActor;verticalLabelPosition=bottom;verticalAlign=top;html=1;outlineConnect=0;" vertex="1" parent="1">
          <mxGeometry x="120" y="360" width="30" height="60" as="geometry" />
        </mxCell>
        <mxCell id="h1gKrtuAk7k6H_YOZJ_B-7" value="렌터카 예약 시스템" style="swimlane;whiteSpace=wrap;html=1;fillColor=#e1d5e7;strokeColor=#9673a6;" vertex="1" parent="1">
          <mxGeometry x="200" y="70" width="440" height="480" as="geometry" />
        </mxCell>
        <mxCell id="ralqLuWNHDdKJg3bRzmN-1" value="회원가입" style="ellipse;whiteSpace=wrap;html=1;" vertex="1" parent="h1gKrtuAk7k6H_YOZJ_B-7">
          <mxGeometry x="310" y="350" width="100" height="60" as="geometry" />
        </mxCell>
        <mxCell id="ralqLuWNHDdKJg3bRzmN-2" value="회원정보관리" style="ellipse;whiteSpace=wrap;html=1;" vertex="1" parent="h1gKrtuAk7k6H_YOZJ_B-7">
          <mxGeometry x="310" y="100" width="100" height="60" as="geometry" />
        </mxCell>
        <mxCell id="ralqLuWNHDdKJg3bRzmN-3" value="차량 등록" style="ellipse;whiteSpace=wrap;html=1;" vertex="1" parent="h1gKrtuAk7k6H_YOZJ_B-7">
          <mxGeometry x="60" y="310" width="100" height="60" as="geometry" />
        </mxCell>
        <mxCell id="ralqLuWNHDdKJg3bRzmN-4" value="렌터카 예약" style="ellipse;whiteSpace=wrap;html=1;" vertex="1" parent="h1gKrtuAk7k6H_YOZJ_B-7">
          <mxGeometry x="90" y="80" width="100" height="60" as="geometry" />
        </mxCell>
        <mxCell id="ralqLuWNHDdKJg3bRzmN-19" value="&amp;lt;&amp;lt;include&amp;gt;&amp;gt;" style="rounded=0;orthogonalLoop=1;jettySize=auto;html=1;exitX=0.5;exitY=0;exitDx=0;exitDy=0;entryX=0.5;entryY=1;entryDx=0;entryDy=0;dashed=1;endArrow=open;endFill=0;labelPosition=right;verticalLabelPosition=middle;align=left;verticalAlign=middle;" edge="1" parent="h1gKrtuAk7k6H_YOZJ_B-7" source="ralqLuWNHDdKJg3bRzmN-5" target="ralqLuWNHDdKJg3bRzmN-3">
          <mxGeometry relative="1" as="geometry" />
        </mxCell>
        <mxCell id="ralqLuWNHDdKJg3bRzmN-5" value="차량 등록 취소" style="ellipse;whiteSpace=wrap;html=1;" vertex="1" parent="h1gKrtuAk7k6H_YOZJ_B-7">
          <mxGeometry x="60" y="410" width="100" height="60" as="geometry" />
        </mxCell>
        <mxCell id="ralqLuWNHDdKJg3bRzmN-17" value="&amp;lt;&amp;lt;include&amp;gt;&amp;gt;" style="rounded=0;orthogonalLoop=1;jettySize=auto;html=1;exitX=0;exitY=0.5;exitDx=0;exitDy=0;entryX=1;entryY=0.5;entryDx=0;entryDy=0;endArrow=open;endFill=0;verticalAlign=bottom;dashed=1;" edge="1" parent="h1gKrtuAk7k6H_YOZJ_B-7" source="ralqLuWNHDdKJg3bRzmN-6" target="ralqLuWNHDdKJg3bRzmN-4">
          <mxGeometry relative="1" as="geometry" />
        </mxCell>
        <mxCell id="ralqLuWNHDdKJg3bRzmN-6" value="렌터카 예약 취소" style="ellipse;whiteSpace=wrap;html=1;" vertex="1" parent="h1gKrtuAk7k6H_YOZJ_B-7">
          <mxGeometry x="190" y="170" width="100" height="60" as="geometry" />
        </mxCell>
        <mxCell id="ralqLuWNHDdKJg3bRzmN-24" value="렌트 비용 결제" style="ellipse;whiteSpace=wrap;html=1;" vertex="1" parent="h1gKrtuAk7k6H_YOZJ_B-7">
          <mxGeometry x="60" y="170" width="100" height="60" as="geometry" />
        </mxCell>
        <mxCell id="h1gKrtuAk7k6H_YOZJ_B-8" value="관리자" style="shape=umlActor;verticalLabelPosition=bottom;verticalAlign=top;html=1;outlineConnect=0;" vertex="1" parent="1">
          <mxGeometry x="700" y="170" width="30" height="60" as="geometry" />
        </mxCell>
        <mxCell id="ralqLuWNHDdKJg3bRzmN-7" style="rounded=0;orthogonalLoop=1;jettySize=auto;html=1;exitX=0.5;exitY=0.5;exitDx=0;exitDy=0;exitPerimeter=0;entryX=0.5;entryY=0.5;entryDx=0;entryDy=0;entryPerimeter=0;dashed=1;" edge="1" parent="1" source="h1gKrtuAk7k6H_YOZJ_B-2" target="h1gKrtuAk7k6H_YOZJ_B-1">
          <mxGeometry relative="1" as="geometry" />
        </mxCell>
        <mxCell id="ralqLuWNHDdKJg3bRzmN-14" style="rounded=0;orthogonalLoop=1;jettySize=auto;html=1;exitX=1;exitY=1;exitDx=0;exitDy=0;exitPerimeter=0;entryX=0;entryY=0.333;entryDx=0;entryDy=0;entryPerimeter=0;endArrow=none;endFill=0;" edge="1" parent="1" source="h1gKrtuAk7k6H_YOZJ_B-3" target="ralqLuWNHDdKJg3bRzmN-5">
          <mxGeometry relative="1" as="geometry" />
        </mxCell>
        <mxCell id="ralqLuWNHDdKJg3bRzmN-18" style="rounded=0;orthogonalLoop=1;jettySize=auto;html=1;entryX=0.5;entryY=0.5;entryDx=0;entryDy=0;entryPerimeter=0;endArrow=none;endFill=0;" edge="1" parent="1" source="ralqLuWNHDdKJg3bRzmN-2" target="h1gKrtuAk7k6H_YOZJ_B-8">
          <mxGeometry relative="1" as="geometry" />
        </mxCell>
        <mxCell id="ralqLuWNHDdKJg3bRzmN-20" value="비회원" style="shape=umlActor;verticalLabelPosition=bottom;verticalAlign=top;html=1;outlineConnect=0;" vertex="1" parent="1">
          <mxGeometry x="700" y="420" width="30" height="60" as="geometry" />
        </mxCell>
        <mxCell id="ralqLuWNHDdKJg3bRzmN-22" value="" style="edgeStyle=orthogonalEdgeStyle;rounded=0;orthogonalLoop=1;jettySize=auto;html=1;endArrow=none;endFill=0;" edge="1" parent="1" source="ralqLuWNHDdKJg3bRzmN-1" target="ralqLuWNHDdKJg3bRzmN-20">
          <mxGeometry relative="1" as="geometry" />
        </mxCell>
      </root>
    </mxGraphModel>
  </diagram>
</mxfile>
